<?xml version="1.0" encoding="UTF-8"?>
<svg id="Layer_1" xmlns="http://www.w3.org/2000/svg" version="1.1" viewBox="0 0 106.5 106.5">
  <!-- Generator: Adobe Illustrator 29.1.0, SVG Export Plug-In . SVG Version: 2.1.0 Build 142)  -->
  <defs>
    <style>
      .st0 {
        stroke-width: 1.6px;
      }

      .st0, .st1, .st2 {
        fill: none;
      }

      .st0, .st1, .st2, .st3 {
        stroke: #000;
        stroke-miterlimit: 10;
      }

      .st1, .st2, .st3 {
        stroke-width: 1.5px;
      }

      .st4, .st3, .st5, .st6, .st7, .st8, .st9 {
        isolation: isolate;
      }

      .st10 {
        fill: #d8cdb6;
      }

      .st2 {
        stroke-linecap: round;
      }

      .st11, .st3, .st5, .st6, .st7, .st8, .st9 {
        fill: #fff;
      }

      .st12 {
        fill: #4dbbb5;
      }

      .st5 {
        opacity: .9;
      }

      .st6 {
        opacity: .1;
      }

      .st7 {
        opacity: .2;
      }

      .st8 {
        opacity: .6;
      }

      .st9 {
        opacity: .4;
      }
    </style>
  </defs>
  <path class="st12" d="M36.2,16.2c-9.6,3.2-15.2,10.8-18.2,16.6,4.2-7.3,10.5-13.1,18.2-16.6Z"/>
  <path class="st10" d="M61.3,13.7h.2c-2.8-.7-5.7-1.1-8.6-1.1-6,0-11.6,1.3-16.7,3.6.4-.1.9-.3,1.3-.4,0,0,12.3-4.2,23.8-2.2h0Z"/>
  <path class="st10" d="M18.1,32.8c-1.1,1.8-2,3.8-2.7,5.8l.3-.2c.4-1.3,1.2-3.3,2.4-5.6Z"/>
  <path class="st10" d="M70.5,16.6l-.4.2c1.3.8,2.5,1.7,3.6,2.8.2.2-3.1-.3-8.2-.3L13.1,47.8c-.2,1.7-.3,3.3-.3,5.1s.2,3.9.4,5.8c.9,6,3.1,11.7,6.3,16.5l70.4-38.2c-3.8-8.9-10.7-16.1-19.4-20.3h0Z"/>
  <path class="st10" d="M65.9,14.9h0c-1-.4-2-.7-3-1h-.2c1,.3,2.1.6,3.1,1Z"/>
  <path class="st10" d="M51.3,20.2L15.4,39.7c0,0-.2.2-.2.3v-.2l-.4.2c-.3,1-.6,2-.9,3l43.3-23.5c-1.9.1-3.9.4-5.9.7Z"/>
  <path class="st10" d="M47.5,92.6c1.8.2,3.5.3,5.4.3,16,0,29.9-9.4,36.3-23l-41.7,22.6h0Z"/>
  <path class="st10" d="M93,50.8l-63.7,34.6c.4.3.8.5,1.2.8l62.6-34v-1.4h0Z"/>
  <path class="st10" d="M16.9,37.8l31.3-17c-10.8,2-22.8,6.7-31.3,17Z"/>
  <path class="st10" d="M73.7,19.7c-1.1-1.1-2.4-2-3.6-2.8l-4.6,2.5c5.2,0,8.4.5,8.2.3Z"/>
  <path class="st10" d="M16.9,37.8c8.6-10.3,20.6-15,31.3-17l13-7.1c-11.5-2-23.8,2.2-23.8,2.2-.4.1-.9.3-1.3.4-7.6,3.5-14,9.3-18.2,16.6-1.2,2.3-2,4.3-2.4,5.6l1.3-.7h.1Z"/>
  <path class="st10" d="M15.2,40.1c0,0,.2-.2.2-.3h-.2v.3Z"/>
  <path class="st10" d="M62.8,14l-11.5,6.3c2-.3,4-.5,5.9-.7l8.7-4.7c-1-.4-2-.6-3.1-.9Z"/>
  <path class="st10" d="M16.9,37.8c-.5.6-1,1.3-1.5,2l35.9-19.5c-1,.1-2,.3-3,.5l-31.3,17h-.1Z"/>
  <path class="st7" d="M16.9,37.8c-.5.6-1,1.3-1.5,2l35.9-19.5c-1,.1-2,.3-3,.5l-31.3,17h-.1Z"/>
  <path class="st10" d="M62.8,14h.2c-.5-.2-1-.3-1.5-.4h-.2c.5.2,1,.3,1.5.4Z"/>
  <path class="st7" d="M62.8,14h.2c-.5-.2-1-.3-1.5-.4h-.2c.5.2,1,.3,1.5.4Z"/>
  <path class="st10" d="M15.7,38.5l-.3.2c-.2.5-.3.9-.5,1.4l.4-.2c0-.3.2-.7.4-1.4Z"/>
  <path class="st7" d="M15.7,38.5l-.3.2c-.2.5-.3.9-.5,1.4l.4-.2c0-.3.2-.7.4-1.4Z"/>
  <path class="st10" d="M61.3,13.7l-13,7.1c1-.2,2-.4,3-.5l11.5-6.3c-.5-.1-1-.2-1.5-.3Z"/>
  <path class="st7" d="M61.3,13.7l-13,7.1c1-.2,2-.4,3-.5l11.5-6.3c-.5-.1-1-.2-1.5-.3Z"/>
  <path class="st10" d="M15.7,38.5c-.2.6-.4,1.1-.4,1.4h.2c.5-.8,1-1.4,1.5-2.1,0,0-1.3.7-1.3.7Z"/>
  <path class="st7" d="M15.7,38.5c-.2.6-.4,1.1-.4,1.4h.2c.5-.8,1-1.4,1.5-2.1,0,0-1.3.7-1.3.7Z"/>
  <path class="st10" d="M70.1,16.8l.4-.2c-1.4-.7-2.9-1.3-4.5-1.8h0c1.5.6,2.9,1.2,4.2,2Z"/>
  <path class="st9" d="M70.1,16.8l.4-.2c-1.4-.7-2.9-1.3-4.5-1.8h0c1.5.6,2.9,1.2,4.2,2Z"/>
  <path class="st10" d="M57.2,19.6L13.9,43.1c-.4,1.5-.7,3.1-.9,4.7l52.4-28.5c-2.4,0-5.2,0-8.3.3h0Z"/>
  <path class="st9" d="M57.2,19.6L13.9,43.1c-.4,1.5-.7,3.1-.9,4.7l52.4-28.5c-2.4,0-5.2,0-8.3.3h0Z"/>
  <path class="st10" d="M57.2,19.6c3.1-.2,5.9-.3,8.3-.3l4.6-2.5c-1.3-.8-2.7-1.5-4.2-2l-8.7,4.7h0Z"/>
  <path class="st9" d="M57.2,19.6c3.1-.2,5.9-.3,8.3-.3l4.6-2.5c-1.3-.8-2.7-1.5-4.2-2l-8.7,4.7h0Z"/>
  <path class="st10" d="M90.9,65.8l-47.9,26c1.5.4,3,.6,4.5.8l41.7-22.6c.6-1.4,1.2-2.8,1.7-4.2Z"/>
  <path class="st9" d="M90.9,65.8l-47.9,26c1.5.4,3,.6,4.5.8l41.7-22.6c.6-1.4,1.2-2.8,1.7-4.2Z"/>
  <path class="st10" d="M92.2,61.2l-53.7,29.1c.7.3,1.4.5,2.2.7l50.9-27.7c.2-.7.4-1.5.5-2.2h0Z"/>
  <path class="st9" d="M92.2,61.2l-53.7,29.1c.7.3,1.4.5,2.2.7l50.9-27.7c.2-.7.4-1.5.5-2.2h0Z"/>
  <path class="st10" d="M92.5,59.7c.4-2.3.6-4.6.6-6.9s0-.4,0-.5l-62.6,34c2.1,1.4,4.3,2.6,6.6,3.6l55.4-30.1h0Z"/>
  <path class="st9" d="M92.5,59.7c.4-2.3.6-4.6.6-6.9s0-.4,0-.5l-62.6,34c2.1,1.4,4.3,2.6,6.6,3.6l55.4-30.1h0Z"/>
  <path class="st10" d="M92.5,59.7l-55.4,30.1c.5.2.9.4,1.4.6l53.7-29.1c0-.5.2-1,.3-1.5h0Z"/>
  <path class="st9" d="M92.5,59.7l-55.4,30.1c.5.2.9.4,1.4.6l53.7-29.1c0-.5.2-1,.3-1.5h0Z"/>
  <path class="st9" d="M92.5,59.7l-55.4,30.1c.5.2.9.4,1.4.6l53.7-29.1c0-.5.2-1,.3-1.5h0Z"/>
  <path class="st10" d="M89.8,36.9L19.5,75.2c2.7,4,6,7.5,9.9,10.3l63.7-34.6c-.2-4.9-1.4-9.6-3.2-13.9h0Z"/>
  <path class="st6" d="M89.8,36.9L19.5,75.2c2.7,4,6,7.5,9.9,10.3l63.7-34.6c-.2-4.9-1.4-9.6-3.2-13.9h0Z"/>
  <path class="st10" d="M40.7,91.1c.8.2,1.6.5,2.4.7l47.9-26c.3-.8.5-1.5.7-2.3l-50.9,27.7h0Z"/>
  <path class="st9" d="M40.7,91.1c.8.2,1.6.5,2.4.7l47.9-26c.3-.8.5-1.5.7-2.3l-50.9,27.7h0Z"/>
  <path class="st5" d="M40.7,91.1c.8.2,1.6.5,2.4.7l47.9-26c.3-.8.5-1.5.7-2.3l-50.9,27.7h0Z"/>
  <path class="st1" d="M88.5,89.4"/>
  <path class="st1" d="M94.7,24.1"/>
  <path class="st2" d="M8.3,33.1c.3-.7.6-1.4,1-2.1"/>
  <path class="st2" d="M5.6,41.2c.5-1.9,1-3.7,1.7-5.5"/>
  <path class="st2" d="M27.5,94.8c-8.1-4.9-14.8-12.2-19-21.4-3.2-7.1-4.6-14.4-4.4-21.7"/>
  <path class="st1" d="M42.4,100.8c-5.3-1.1-10.3-3.1-15-6"/>
  <path class="st1" d="M44.7,101.1"/>
  <path class="st1" d="M81.7,92.5"/>
  <path class="st2" d="M83.7,91l-.3.3"/>
  <path class="st2" d="M87.4,87.8c-.6.6-1.2,1.1-1.9,1.7"/>
  <path class="st2" d="M100.7,65.3c-2,7.4-5.7,14.3-10.8,20"/>
  <path class="st2" d="M99.6,38.7c.2.7.4,1.4.5,2.1"/>
  <path class="st2" d="M83.6,14.9c6.1,5,11,11.3,14.2,18.8"/>
  <path class="st2" d="M64.4,5.4c5.8,1.5,11.3,3.9,16.2,7.3"/>
  <circle class="st4" cx="41.7" cy="101.1" r="2.9"/>
  <circle class="st4" cx="65.7" cy="5.7" r="2.9"/>
  <circle class="st3" cx="99.9" cy="67.6" r="2.9"/>
  <circle class="st0" cx="52.9" cy="52.9" r="40.2"/>
  <circle class="st8" cx="29.5" cy="37.4" r="9.3"/>
  <path class="st11" d="M27,50.9c0,1.8-1.5,3.3-3.3,3.3s-3.3-1.5-3.3-3.3,1.5-3.3,3.3-3.3,3.3,1.6,3.3,3.3Z"/>
</svg>